<mxfile host="app.diagrams.net" modified="2023-09-18T11:48:57.789Z" agent="Mozilla/5.0 (Windows NT 10.0; Win64; x64) AppleWebKit/537.36 (KHTML, like Gecko) Chrome/116.0.0.0 Safari/537.36" etag="XH1W6btlsKSQqjpWlWnR" version="21.7.5" type="device">
  <diagram name="Page-1" id="gq7HU4-aH_6UhHYK7_vZ">
    <mxGraphModel dx="2150" dy="943" grid="1" gridSize="10" guides="1" tooltips="1" connect="1" arrows="1" fold="1" page="1" pageScale="1" pageWidth="850" pageHeight="1100" math="0" shadow="0">
      <root>
        <mxCell id="0" />
        <mxCell id="1" parent="0" />
        <mxCell id="FMKJm3qG62IDYc-58DCF-18" style="edgeStyle=orthogonalEdgeStyle;rounded=0;orthogonalLoop=1;jettySize=auto;html=1;exitX=0.5;exitY=1;exitDx=0;exitDy=0;entryX=0.5;entryY=0;entryDx=0;entryDy=0;" edge="1" parent="1" source="FMKJm3qG62IDYc-58DCF-1" target="FMKJm3qG62IDYc-58DCF-2">
          <mxGeometry relative="1" as="geometry" />
        </mxCell>
        <mxCell id="FMKJm3qG62IDYc-58DCF-1" value="Start" style="rounded=1;whiteSpace=wrap;html=1;" vertex="1" parent="1">
          <mxGeometry x="100" y="40" width="120" height="60" as="geometry" />
        </mxCell>
        <mxCell id="FMKJm3qG62IDYc-58DCF-17" style="edgeStyle=orthogonalEdgeStyle;rounded=0;orthogonalLoop=1;jettySize=auto;html=1;exitX=0.5;exitY=1;exitDx=0;exitDy=0;entryX=0.5;entryY=0;entryDx=0;entryDy=0;" edge="1" parent="1" source="FMKJm3qG62IDYc-58DCF-2" target="FMKJm3qG62IDYc-58DCF-4">
          <mxGeometry relative="1" as="geometry" />
        </mxCell>
        <mxCell id="FMKJm3qG62IDYc-58DCF-2" value="playerDictionary = {}" style="rounded=0;whiteSpace=wrap;html=1;" vertex="1" parent="1">
          <mxGeometry x="100" y="150" width="120" height="60" as="geometry" />
        </mxCell>
        <mxCell id="FMKJm3qG62IDYc-58DCF-16" style="edgeStyle=orthogonalEdgeStyle;rounded=0;orthogonalLoop=1;jettySize=auto;html=1;exitX=0.5;exitY=1;exitDx=0;exitDy=0;entryX=0.5;entryY=0;entryDx=0;entryDy=0;" edge="1" parent="1" source="FMKJm3qG62IDYc-58DCF-4" target="FMKJm3qG62IDYc-58DCF-5">
          <mxGeometry relative="1" as="geometry" />
        </mxCell>
        <mxCell id="FMKJm3qG62IDYc-58DCF-4" value="biggestHeight = 0" style="rounded=0;whiteSpace=wrap;html=1;" vertex="1" parent="1">
          <mxGeometry x="100" y="250" width="120" height="60" as="geometry" />
        </mxCell>
        <mxCell id="FMKJm3qG62IDYc-58DCF-15" style="edgeStyle=orthogonalEdgeStyle;rounded=0;orthogonalLoop=1;jettySize=auto;html=1;exitX=1;exitY=0.5;exitDx=0;exitDy=0;entryX=0;entryY=0.5;entryDx=0;entryDy=0;" edge="1" parent="1" source="FMKJm3qG62IDYc-58DCF-5" target="FMKJm3qG62IDYc-58DCF-6">
          <mxGeometry relative="1" as="geometry" />
        </mxCell>
        <mxCell id="FMKJm3qG62IDYc-58DCF-5" value="tallestPlayer = &#39;&#39;&quot;" style="rounded=0;whiteSpace=wrap;html=1;" vertex="1" parent="1">
          <mxGeometry x="100" y="350" width="120" height="60" as="geometry" />
        </mxCell>
        <mxCell id="FMKJm3qG62IDYc-58DCF-14" value="true" style="edgeStyle=orthogonalEdgeStyle;rounded=0;orthogonalLoop=1;jettySize=auto;html=1;exitX=1;exitY=0.5;exitDx=0;exitDy=0;entryX=0.06;entryY=0.433;entryDx=0;entryDy=0;entryPerimeter=0;" edge="1" parent="1" source="FMKJm3qG62IDYc-58DCF-6" target="FMKJm3qG62IDYc-58DCF-7">
          <mxGeometry relative="1" as="geometry" />
        </mxCell>
        <mxCell id="FMKJm3qG62IDYc-58DCF-24" value="false" style="edgeStyle=orthogonalEdgeStyle;rounded=0;orthogonalLoop=1;jettySize=auto;html=1;exitX=0.5;exitY=1;exitDx=0;exitDy=0;" edge="1" parent="1" source="FMKJm3qG62IDYc-58DCF-6">
          <mxGeometry relative="1" as="geometry">
            <mxPoint x="359.6470588235295" y="510" as="targetPoint" />
          </mxGeometry>
        </mxCell>
        <mxCell id="FMKJm3qG62IDYc-58DCF-6" value="for x in range(0, 3)" style="rhombus;whiteSpace=wrap;html=1;" vertex="1" parent="1">
          <mxGeometry x="290" y="310" width="140" height="140" as="geometry" />
        </mxCell>
        <mxCell id="FMKJm3qG62IDYc-58DCF-19" style="edgeStyle=orthogonalEdgeStyle;rounded=0;orthogonalLoop=1;jettySize=auto;html=1;exitX=1;exitY=0.5;exitDx=0;exitDy=0;entryX=0;entryY=0.5;entryDx=0;entryDy=0;" edge="1" parent="1" source="FMKJm3qG62IDYc-58DCF-7" target="FMKJm3qG62IDYc-58DCF-8">
          <mxGeometry relative="1" as="geometry" />
        </mxCell>
        <mxCell id="FMKJm3qG62IDYc-58DCF-7" value="print((&#39;Whats the name of player &#39; + str((x + 1))))" style="shape=parallelogram;perimeter=parallelogramPerimeter;whiteSpace=wrap;html=1;fixedSize=1;" vertex="1" parent="1">
          <mxGeometry x="490" y="350" width="170" height="70" as="geometry" />
        </mxCell>
        <mxCell id="FMKJm3qG62IDYc-58DCF-20" style="edgeStyle=orthogonalEdgeStyle;rounded=0;orthogonalLoop=1;jettySize=auto;html=1;exitX=1;exitY=0.5;exitDx=0;exitDy=0;entryX=0;entryY=0.5;entryDx=0;entryDy=0;" edge="1" parent="1" source="FMKJm3qG62IDYc-58DCF-8" target="FMKJm3qG62IDYc-58DCF-10">
          <mxGeometry relative="1" as="geometry" />
        </mxCell>
        <mxCell id="FMKJm3qG62IDYc-58DCF-8" value="playerName = input()" style="shape=parallelogram;perimeter=parallelogramPerimeter;whiteSpace=wrap;html=1;fixedSize=1;" vertex="1" parent="1">
          <mxGeometry x="710" y="355" width="140" height="60" as="geometry" />
        </mxCell>
        <mxCell id="FMKJm3qG62IDYc-58DCF-21" style="edgeStyle=orthogonalEdgeStyle;rounded=0;orthogonalLoop=1;jettySize=auto;html=1;exitX=1;exitY=0.5;exitDx=0;exitDy=0;entryX=0.06;entryY=0.59;entryDx=0;entryDy=0;entryPerimeter=0;" edge="1" parent="1" source="FMKJm3qG62IDYc-58DCF-10" target="FMKJm3qG62IDYc-58DCF-12">
          <mxGeometry relative="1" as="geometry" />
        </mxCell>
        <mxCell id="FMKJm3qG62IDYc-58DCF-10" value="print((&#39;Whats the height of player &#39; + str((x + 1))))" style="shape=parallelogram;perimeter=parallelogramPerimeter;whiteSpace=wrap;html=1;fixedSize=1;" vertex="1" parent="1">
          <mxGeometry x="900" y="350" width="170" height="70" as="geometry" />
        </mxCell>
        <mxCell id="FMKJm3qG62IDYc-58DCF-22" style="edgeStyle=orthogonalEdgeStyle;rounded=0;orthogonalLoop=1;jettySize=auto;html=1;exitX=1;exitY=0.5;exitDx=0;exitDy=0;entryX=0;entryY=0.5;entryDx=0;entryDy=0;" edge="1" parent="1" source="FMKJm3qG62IDYc-58DCF-12" target="FMKJm3qG62IDYc-58DCF-13">
          <mxGeometry relative="1" as="geometry" />
        </mxCell>
        <mxCell id="FMKJm3qG62IDYc-58DCF-12" value="playerHeight = input()" style="shape=parallelogram;perimeter=parallelogramPerimeter;whiteSpace=wrap;html=1;fixedSize=1;" vertex="1" parent="1">
          <mxGeometry x="1110" y="350" width="140" height="60" as="geometry" />
        </mxCell>
        <mxCell id="FMKJm3qG62IDYc-58DCF-23" style="edgeStyle=orthogonalEdgeStyle;rounded=0;orthogonalLoop=1;jettySize=auto;html=1;exitX=0.5;exitY=0;exitDx=0;exitDy=0;entryX=0.5;entryY=0;entryDx=0;entryDy=0;" edge="1" parent="1" source="FMKJm3qG62IDYc-58DCF-13" target="FMKJm3qG62IDYc-58DCF-6">
          <mxGeometry relative="1" as="geometry">
            <Array as="points">
              <mxPoint x="1395" y="270" />
              <mxPoint x="360" y="270" />
            </Array>
          </mxGeometry>
        </mxCell>
        <mxCell id="FMKJm3qG62IDYc-58DCF-13" value="playerDictionary[playerName] = playerHeight" style="rounded=0;whiteSpace=wrap;html=1;" vertex="1" parent="1">
          <mxGeometry x="1310" y="350" width="170" height="60" as="geometry" />
        </mxCell>
        <mxCell id="FMKJm3qG62IDYc-58DCF-28" value="true" style="edgeStyle=orthogonalEdgeStyle;rounded=0;orthogonalLoop=1;jettySize=auto;html=1;exitX=0.5;exitY=1;exitDx=0;exitDy=0;entryX=0.5;entryY=0;entryDx=0;entryDy=0;" edge="1" parent="1" source="FMKJm3qG62IDYc-58DCF-25" target="FMKJm3qG62IDYc-58DCF-26">
          <mxGeometry relative="1" as="geometry" />
        </mxCell>
        <mxCell id="FMKJm3qG62IDYc-58DCF-32" value="false" style="edgeStyle=orthogonalEdgeStyle;rounded=0;orthogonalLoop=1;jettySize=auto;html=1;exitX=1;exitY=0.5;exitDx=0;exitDy=0;" edge="1" parent="1" source="FMKJm3qG62IDYc-58DCF-25">
          <mxGeometry relative="1" as="geometry">
            <mxPoint x="540" y="600" as="targetPoint" />
          </mxGeometry>
        </mxCell>
        <mxCell id="FMKJm3qG62IDYc-58DCF-25" value="for (playerName, playerHeight) in playerDictionary.items()" style="rhombus;whiteSpace=wrap;html=1;" vertex="1" parent="1">
          <mxGeometry x="257.5" y="510" width="205" height="180" as="geometry" />
        </mxCell>
        <mxCell id="FMKJm3qG62IDYc-58DCF-30" value="true" style="edgeStyle=orthogonalEdgeStyle;rounded=0;orthogonalLoop=1;jettySize=auto;html=1;exitX=0.5;exitY=1;exitDx=0;exitDy=0;" edge="1" parent="1" source="FMKJm3qG62IDYc-58DCF-26" target="FMKJm3qG62IDYc-58DCF-29">
          <mxGeometry relative="1" as="geometry" />
        </mxCell>
        <mxCell id="FMKJm3qG62IDYc-58DCF-31" value="false" style="edgeStyle=orthogonalEdgeStyle;rounded=0;orthogonalLoop=1;jettySize=auto;html=1;exitX=0;exitY=0.5;exitDx=0;exitDy=0;entryX=0;entryY=0.5;entryDx=0;entryDy=0;" edge="1" parent="1" source="FMKJm3qG62IDYc-58DCF-26" target="FMKJm3qG62IDYc-58DCF-25">
          <mxGeometry relative="1" as="geometry">
            <Array as="points">
              <mxPoint x="238" y="830" />
              <mxPoint x="238" y="600" />
            </Array>
          </mxGeometry>
        </mxCell>
        <mxCell id="FMKJm3qG62IDYc-58DCF-26" value="if (int(playerHeight) &amp;gt; int(biggestHeight))" style="rhombus;whiteSpace=wrap;html=1;" vertex="1" parent="1">
          <mxGeometry x="257.5" y="740" width="205" height="180" as="geometry" />
        </mxCell>
        <mxCell id="FMKJm3qG62IDYc-58DCF-37" style="edgeStyle=orthogonalEdgeStyle;rounded=0;orthogonalLoop=1;jettySize=auto;html=1;exitX=0.5;exitY=1;exitDx=0;exitDy=0;entryX=0.5;entryY=0;entryDx=0;entryDy=0;" edge="1" parent="1" source="FMKJm3qG62IDYc-58DCF-29" target="FMKJm3qG62IDYc-58DCF-36">
          <mxGeometry relative="1" as="geometry" />
        </mxCell>
        <mxCell id="FMKJm3qG62IDYc-58DCF-29" value="&lt;br&gt;biggestHeight = playerHeight" style="rounded=0;whiteSpace=wrap;html=1;" vertex="1" parent="1">
          <mxGeometry x="300" y="960" width="120" height="60" as="geometry" />
        </mxCell>
        <mxCell id="FMKJm3qG62IDYc-58DCF-35" style="edgeStyle=orthogonalEdgeStyle;rounded=0;orthogonalLoop=1;jettySize=auto;html=1;exitX=1;exitY=0.5;exitDx=0;exitDy=0;entryX=0;entryY=0.5;entryDx=0;entryDy=0;" edge="1" parent="1" source="FMKJm3qG62IDYc-58DCF-33" target="FMKJm3qG62IDYc-58DCF-34">
          <mxGeometry relative="1" as="geometry" />
        </mxCell>
        <mxCell id="FMKJm3qG62IDYc-58DCF-33" value="print the tallestPlayer variable&lt;br&gt;and the biggestHeight variable" style="shape=parallelogram;perimeter=parallelogramPerimeter;whiteSpace=wrap;html=1;fixedSize=1;" vertex="1" parent="1">
          <mxGeometry x="530" y="565" width="200" height="70" as="geometry" />
        </mxCell>
        <mxCell id="FMKJm3qG62IDYc-58DCF-34" value="End" style="rounded=1;whiteSpace=wrap;html=1;" vertex="1" parent="1">
          <mxGeometry x="810" y="570" width="120" height="60" as="geometry" />
        </mxCell>
        <mxCell id="FMKJm3qG62IDYc-58DCF-38" style="edgeStyle=orthogonalEdgeStyle;rounded=0;orthogonalLoop=1;jettySize=auto;html=1;exitX=0;exitY=0.5;exitDx=0;exitDy=0;" edge="1" parent="1" source="FMKJm3qG62IDYc-58DCF-36">
          <mxGeometry relative="1" as="geometry">
            <mxPoint x="240" y="830" as="targetPoint" />
          </mxGeometry>
        </mxCell>
        <mxCell id="FMKJm3qG62IDYc-58DCF-36" value="tallestPlayer = playerName" style="rounded=0;whiteSpace=wrap;html=1;" vertex="1" parent="1">
          <mxGeometry x="300" y="1070" width="120" height="60" as="geometry" />
        </mxCell>
      </root>
    </mxGraphModel>
  </diagram>
</mxfile>
